<?xml version="1.0" standalone="no"?><!DOCTYPE svg PUBLIC "-//W3C//DTD SVG 1.1//EN" "http://www.w3.org/Graphics/SVG/1.1/DTD/svg11.dtd"><svg t="1733889088517" class="icon" viewBox="0 0 1024 1024" version="1.1" xmlns="http://www.w3.org/2000/svg" p-id="5255" xmlns:xlink="http://www.w3.org/1999/xlink" width="200" height="200"><path d="M659.52 487.68H364.48c-57.44 0-104.16-46.72-104.16-104.16s46.72-104.16 104.16-104.16h326.24c8.8 16.32 25.76 27.52 45.6 27.52 28.64 0 51.84-23.36 51.84-51.84s-23.36-51.84-51.84-51.84c-19.68 0-36.8 11.2-45.6 27.52H364.48c-84.32 0-152.96 68.64-152.96 152.96 0 84.32 68.64 152.96 152.96 152.96h295.04c57.44 0 104.16 46.72 104.16 104.16s-46.72 104.16-104.16 104.16H333.28c-8.8-16.32-25.76-27.52-45.6-27.52a51.84 51.84 0 1 0 0 103.68c19.68 0 36.8-11.2 45.6-27.52h326.24c84.32 0 152.96-68.64 152.96-152.96 0-84.48-68.64-152.96-152.96-152.96z" fill="#2A2C2C" p-id="5256"></path></svg>