<?xml version="1.0" standalone="no"?><!DOCTYPE svg PUBLIC "-//W3C//DTD SVG 1.1//EN" "http://www.w3.org/Graphics/SVG/1.1/DTD/svg11.dtd"><svg t="1733889277042" class="icon" viewBox="0 0 1024 1024" version="1.1" xmlns="http://www.w3.org/2000/svg" p-id="7450" xmlns:xlink="http://www.w3.org/1999/xlink" width="200" height="200"><path d="M204.8 102.4H153.6a51.2 51.2 0 0 0-51.2 51.2v716.8a51.2 51.2 0 0 0 51.2 51.2h51.2v-307.2a102.4 102.4 0 0 1 102.4-102.4h409.6a102.4 102.4 0 0 1 102.4 102.4v307.2h51.2a51.2 51.2 0 0 0 51.2-51.2V400.7936a51.2 51.2 0 0 0-15.0016-36.1984L659.456 117.4016A51.2 51.2 0 0 0 623.2064 102.4H256v153.6a76.8 76.8 0 0 0 76.8 76.8h307.2a25.6 25.6 0 1 1 0 51.2h-307.2A128 128 0 0 1 204.8 256V102.4z m418.4064-51.2a102.4 102.4 0 0 1 72.3968 30.0032l247.1936 247.1936A102.4 102.4 0 0 1 972.8 400.7936V870.4a102.4 102.4 0 0 1-102.4 102.4H153.6a102.4 102.4 0 0 1-102.4-102.4V153.6a102.4 102.4 0 0 1 102.4-102.4h469.6064zM256 921.6h512v-307.2a51.2 51.2 0 0 0-51.2-51.2H307.2a51.2 51.2 0 0 0-51.2 51.2v307.2z" fill="#000000" p-id="7451"></path></svg>